<mxfile host="Electron" modified="2024-02-08T13:50:29.577Z" agent="Mozilla/5.0 (Windows NT 10.0; Win64; x64) AppleWebKit/537.36 (KHTML, like Gecko) draw.io/23.0.2 Chrome/120.0.6099.109 Electron/28.1.0 Safari/537.36" etag="PG2W7KaDuJOIoN1qT_Vi" version="23.0.2" type="device">
  <diagram name="Página-1" id="s7JeJmt6lGVTh85DYFUo">
    <mxGraphModel dx="1098" dy="828" grid="1" gridSize="10" guides="1" tooltips="1" connect="1" arrows="1" fold="1" page="1" pageScale="1" pageWidth="827" pageHeight="1169" math="0" shadow="0">
      <root>
        <mxCell id="0" />
        <mxCell id="1" parent="0" />
        <mxCell id="7Ek7RL77VowX6VJ70j0s-6" value="" style="edgeStyle=orthogonalEdgeStyle;rounded=0;orthogonalLoop=1;jettySize=auto;html=1;" parent="1" source="7Ek7RL77VowX6VJ70j0s-1" target="7Ek7RL77VowX6VJ70j0s-5" edge="1">
          <mxGeometry relative="1" as="geometry" />
        </mxCell>
        <mxCell id="7Ek7RL77VowX6VJ70j0s-1" value="" style="ellipse;whiteSpace=wrap;html=1;fillColor=#0050ef;strokeColor=#001DBC;fontColor=#ffffff;" parent="1" vertex="1">
          <mxGeometry x="210" y="110" width="170" height="100" as="geometry" />
        </mxCell>
        <mxCell id="7Ek7RL77VowX6VJ70j0s-2" value="&lt;h1 style=&quot;&quot;&gt;&lt;font size=&quot;1&quot; face=&quot;Times New Roman&quot; style=&quot;&quot;&gt;&lt;u style=&quot;font-size: 45px;&quot;&gt;Inicio&lt;/u&gt;&lt;/font&gt;&lt;/h1&gt;" style="text;html=1;strokeColor=none;fillColor=none;align=center;verticalAlign=middle;whiteSpace=wrap;rounded=0;fontSize=34;fontFamily=Times New Roman;" parent="1" vertex="1">
          <mxGeometry x="240" y="120" width="110" height="60" as="geometry" />
        </mxCell>
        <mxCell id="7Ek7RL77VowX6VJ70j0s-3" value="" style="endArrow=classic;html=1;rounded=0;" parent="1" edge="1">
          <mxGeometry width="50" height="50" relative="1" as="geometry">
            <mxPoint x="294.66" y="320" as="sourcePoint" />
            <mxPoint x="294.66" y="360" as="targetPoint" />
          </mxGeometry>
        </mxCell>
        <mxCell id="7Ek7RL77VowX6VJ70j0s-4" value="" style="rounded=1;whiteSpace=wrap;html=1;fillColor=#dae8fc;gradientColor=#7ea6e0;strokeColor=#6c8ebf;" parent="1" vertex="1">
          <mxGeometry x="232.5" y="250" width="125" height="70" as="geometry" />
        </mxCell>
        <mxCell id="7Ek7RL77VowX6VJ70j0s-8" value="" style="edgeStyle=orthogonalEdgeStyle;rounded=0;orthogonalLoop=1;jettySize=auto;html=1;" parent="1" source="7Ek7RL77VowX6VJ70j0s-5" target="7Ek7RL77VowX6VJ70j0s-7" edge="1">
          <mxGeometry relative="1" as="geometry" />
        </mxCell>
        <mxCell id="7Ek7RL77VowX6VJ70j0s-5" value="&lt;font face=&quot;Times New Roman&quot;&gt;&lt;b&gt;Publicacion del nuevo producto en redes sociales y paginas web&amp;nbsp;&lt;/b&gt;&lt;/font&gt;" style="text;html=1;align=center;verticalAlign=middle;whiteSpace=wrap;rounded=0;fontFamily=Helvetica;" parent="1" vertex="1">
          <mxGeometry x="240" y="255" width="110" height="60" as="geometry" />
        </mxCell>
        <mxCell id="7Ek7RL77VowX6VJ70j0s-9" style="edgeStyle=orthogonalEdgeStyle;rounded=0;orthogonalLoop=1;jettySize=auto;html=1;exitX=0.5;exitY=1;exitDx=0;exitDy=0;" parent="1" source="7Ek7RL77VowX6VJ70j0s-7" edge="1">
          <mxGeometry relative="1" as="geometry">
            <mxPoint x="295.0689655172414" y="470" as="targetPoint" />
          </mxGeometry>
        </mxCell>
        <mxCell id="7Ek7RL77VowX6VJ70j0s-7" value="" style="rounded=1;whiteSpace=wrap;html=1;fillColor=#dae8fc;gradientColor=#7ea6e0;strokeColor=#6c8ebf;" parent="1" vertex="1">
          <mxGeometry x="232.5" y="360" width="125" height="70" as="geometry" />
        </mxCell>
        <mxCell id="7Ek7RL77VowX6VJ70j0s-10" value="&lt;b style=&quot;&quot;&gt;&lt;font face=&quot;Times New Roman&quot;&gt;El cliente visualizara el lanzamiento del nuevo producto&amp;nbsp;&lt;/font&gt;&lt;/b&gt;" style="text;html=1;strokeColor=none;fillColor=none;align=center;verticalAlign=middle;whiteSpace=wrap;rounded=0;" parent="1" vertex="1">
          <mxGeometry x="240" y="360" width="110" height="70" as="geometry" />
        </mxCell>
        <mxCell id="7Ek7RL77VowX6VJ70j0s-12" style="edgeStyle=orthogonalEdgeStyle;rounded=0;orthogonalLoop=1;jettySize=auto;html=1;exitX=0.5;exitY=1;exitDx=0;exitDy=0;" parent="1" source="7Ek7RL77VowX6VJ70j0s-11" edge="1">
          <mxGeometry relative="1" as="geometry">
            <mxPoint x="295" y="580" as="targetPoint" />
            <Array as="points">
              <mxPoint x="295" y="565" />
            </Array>
          </mxGeometry>
        </mxCell>
        <mxCell id="7Ek7RL77VowX6VJ70j0s-11" value="" style="rounded=1;whiteSpace=wrap;html=1;fillColor=#dae8fc;gradientColor=#7ea6e0;strokeColor=#6c8ebf;" parent="1" vertex="1">
          <mxGeometry x="232.5" y="470" width="125" height="70" as="geometry" />
        </mxCell>
        <mxCell id="7Ek7RL77VowX6VJ70j0s-16" style="edgeStyle=orthogonalEdgeStyle;rounded=0;orthogonalLoop=1;jettySize=auto;html=1;exitX=1;exitY=0.5;exitDx=0;exitDy=0;entryX=-0.003;entryY=0.433;entryDx=0;entryDy=0;entryPerimeter=0;" parent="1" source="7Ek7RL77VowX6VJ70j0s-13" target="7Ek7RL77VowX6VJ70j0s-17" edge="1">
          <mxGeometry relative="1" as="geometry">
            <mxPoint x="440" y="280" as="targetPoint" />
            <Array as="points">
              <mxPoint x="440" y="625" />
              <mxPoint x="440" y="280" />
            </Array>
          </mxGeometry>
        </mxCell>
        <mxCell id="7Ek7RL77VowX6VJ70j0s-13" value="" style="rounded=1;whiteSpace=wrap;html=1;fillColor=#dae8fc;gradientColor=#7ea6e0;strokeColor=#6c8ebf;" parent="1" vertex="1">
          <mxGeometry x="215" y="580" width="160" height="90" as="geometry" />
        </mxCell>
        <mxCell id="7Ek7RL77VowX6VJ70j0s-14" value="&lt;font face=&quot;Times New Roman&quot;&gt;&lt;b&gt;El cliente interesado se pone en contacto con renting&lt;/b&gt;&lt;/font&gt;" style="text;html=1;strokeColor=none;fillColor=none;align=center;verticalAlign=middle;whiteSpace=wrap;rounded=0;" parent="1" vertex="1">
          <mxGeometry x="240" y="470" width="110" height="70" as="geometry" />
        </mxCell>
        <mxCell id="7Ek7RL77VowX6VJ70j0s-15" value="Se presta la asesoría correspondiente sobre el nuevo producto alquiler de motocicletas de alto cilindraje" style="text;html=1;strokeColor=none;fillColor=none;align=center;verticalAlign=middle;whiteSpace=wrap;rounded=0;fontStyle=1;fontFamily=Times New Roman;" parent="1" vertex="1">
          <mxGeometry x="220" y="580" width="150" height="90" as="geometry" />
        </mxCell>
        <mxCell id="7Ek7RL77VowX6VJ70j0s-18" style="edgeStyle=orthogonalEdgeStyle;rounded=0;orthogonalLoop=1;jettySize=auto;html=1;exitX=0;exitY=0.5;exitDx=0;exitDy=0;entryX=-0.019;entryY=0.425;entryDx=0;entryDy=0;entryPerimeter=0;" parent="1" source="7Ek7RL77VowX6VJ70j0s-17" target="7Ek7RL77VowX6VJ70j0s-17" edge="1">
          <mxGeometry relative="1" as="geometry">
            <mxPoint x="440" y="280" as="targetPoint" />
            <Array as="points">
              <mxPoint x="480" y="280" />
            </Array>
          </mxGeometry>
        </mxCell>
        <mxCell id="7Ek7RL77VowX6VJ70j0s-17" value="" style="rounded=1;whiteSpace=wrap;html=1;fillColor=#dae8fc;gradientColor=#7ea6e0;strokeColor=#6c8ebf;" parent="1" vertex="1">
          <mxGeometry x="480" y="250" width="125" height="70" as="geometry" />
        </mxCell>
        <mxCell id="7Ek7RL77VowX6VJ70j0s-53" value="" style="edgeStyle=orthogonalEdgeStyle;rounded=0;orthogonalLoop=1;jettySize=auto;html=1;" parent="1" source="7Ek7RL77VowX6VJ70j0s-20" target="7Ek7RL77VowX6VJ70j0s-27" edge="1">
          <mxGeometry relative="1" as="geometry" />
        </mxCell>
        <mxCell id="7Ek7RL77VowX6VJ70j0s-20" value="Text" style="text;html=1;strokeColor=none;fillColor=none;align=center;verticalAlign=middle;whiteSpace=wrap;rounded=0;" parent="1" vertex="1">
          <mxGeometry x="487.5" y="360" width="112.5" height="70" as="geometry" />
        </mxCell>
        <mxCell id="7Ek7RL77VowX6VJ70j0s-22" style="edgeStyle=orthogonalEdgeStyle;rounded=0;orthogonalLoop=1;jettySize=auto;html=1;exitX=0.5;exitY=1;exitDx=0;exitDy=0;" parent="1" source="7Ek7RL77VowX6VJ70j0s-21" edge="1">
          <mxGeometry relative="1" as="geometry">
            <mxPoint x="542.8148148148148" y="360" as="targetPoint" />
          </mxGeometry>
        </mxCell>
        <mxCell id="7Ek7RL77VowX6VJ70j0s-21" value="Se le realiza un estudio al cliente (Crediticio y de licencia de conducción)" style="text;strokeColor=none;fillColor=none;align=center;verticalAlign=middle;rounded=0;labelBackgroundColor=none;labelBorderColor=none;whiteSpace=wrap;html=1;fontStyle=1;fontFamily=Times New Roman;" parent="1" vertex="1">
          <mxGeometry x="487.5" y="250" width="110" height="70" as="geometry" />
        </mxCell>
        <mxCell id="7Ek7RL77VowX6VJ70j0s-23" value="&lt;b&gt;Se confirma los dias o meses de alquiler de la motocicleta&lt;/b&gt;" style="rounded=1;whiteSpace=wrap;html=1;fillColor=#dae8fc;gradientColor=#7ea6e0;strokeColor=#6c8ebf;" parent="1" vertex="1">
          <mxGeometry x="480" y="360" width="125" height="70" as="geometry" />
        </mxCell>
        <mxCell id="7Ek7RL77VowX6VJ70j0s-55" style="edgeStyle=orthogonalEdgeStyle;rounded=0;orthogonalLoop=1;jettySize=auto;html=1;entryX=0.5;entryY=0;entryDx=0;entryDy=0;" parent="1" source="7Ek7RL77VowX6VJ70j0s-24" target="7Ek7RL77VowX6VJ70j0s-54" edge="1">
          <mxGeometry relative="1" as="geometry">
            <Array as="points">
              <mxPoint x="543" y="690" />
              <mxPoint x="290" y="690" />
              <mxPoint x="290" y="710" />
            </Array>
          </mxGeometry>
        </mxCell>
        <mxCell id="7Ek7RL77VowX6VJ70j0s-24" value="&lt;b&gt;&lt;font style=&quot;font-size: 10px;&quot;&gt;Se presta un seguro (vida,accidentes,robos y daños a terceros)&lt;/font&gt;&lt;/b&gt;" style="rounded=1;whiteSpace=wrap;html=1;fillColor=#dae8fc;gradientColor=#7ea6e0;strokeColor=#6c8ebf;" parent="1" vertex="1">
          <mxGeometry x="480" y="580" width="126.25" height="70" as="geometry" />
        </mxCell>
        <mxCell id="7Ek7RL77VowX6VJ70j0s-51" value="" style="edgeStyle=orthogonalEdgeStyle;rounded=0;orthogonalLoop=1;jettySize=auto;html=1;" parent="1" source="7Ek7RL77VowX6VJ70j0s-27" target="7Ek7RL77VowX6VJ70j0s-24" edge="1">
          <mxGeometry relative="1" as="geometry">
            <Array as="points">
              <mxPoint x="540" y="550" />
              <mxPoint x="540" y="550" />
            </Array>
          </mxGeometry>
        </mxCell>
        <mxCell id="7Ek7RL77VowX6VJ70j0s-27" value="&lt;b&gt;Si el cliente acepta se genera el pedido&amp;nbsp;&lt;/b&gt;" style="rounded=1;whiteSpace=wrap;html=1;fillColor=#dae8fc;gradientColor=#7ea6e0;strokeColor=#6c8ebf;" parent="1" vertex="1">
          <mxGeometry x="481.25" y="470" width="125" height="70" as="geometry" />
        </mxCell>
        <mxCell id="7Ek7RL77VowX6VJ70j0s-58" value="" style="edgeStyle=orthogonalEdgeStyle;rounded=0;orthogonalLoop=1;jettySize=auto;html=1;" parent="1" source="7Ek7RL77VowX6VJ70j0s-54" target="7Ek7RL77VowX6VJ70j0s-56" edge="1">
          <mxGeometry relative="1" as="geometry" />
        </mxCell>
        <mxCell id="7Ek7RL77VowX6VJ70j0s-54" value="&lt;b&gt;&lt;font style=&quot;font-size: 10px;&quot;&gt;Se realiza el pago del alquiler y el deposito&amp;nbsp;&lt;/font&gt;&lt;/b&gt;" style="rounded=1;whiteSpace=wrap;html=1;fillColor=#dae8fc;gradientColor=#7ea6e0;strokeColor=#6c8ebf;" parent="1" vertex="1">
          <mxGeometry x="232.5" y="720" width="116.25" height="50" as="geometry" />
        </mxCell>
        <mxCell id="7Ek7RL77VowX6VJ70j0s-60" value="" style="edgeStyle=orthogonalEdgeStyle;rounded=0;orthogonalLoop=1;jettySize=auto;html=1;" parent="1" source="7Ek7RL77VowX6VJ70j0s-56" target="7Ek7RL77VowX6VJ70j0s-59" edge="1">
          <mxGeometry relative="1" as="geometry" />
        </mxCell>
        <mxCell id="7Ek7RL77VowX6VJ70j0s-56" value="&lt;font style=&quot;&quot;&gt;&lt;span style=&quot;font-size: 10px;&quot;&gt;&lt;b&gt;Se realiza la entrega de la motocicleta de&amp;nbsp; a 3 días&amp;nbsp;&lt;/b&gt;&lt;/span&gt;&lt;/font&gt;&lt;span style=&quot;font-size: 10px;&quot;&gt;&lt;b&gt;hábiles&lt;/b&gt;&lt;/span&gt;" style="rounded=1;whiteSpace=wrap;html=1;fillColor=#dae8fc;gradientColor=#7ea6e0;strokeColor=#6c8ebf;" parent="1" vertex="1">
          <mxGeometry x="227.5" y="810" width="126.25" height="70" as="geometry" />
        </mxCell>
        <mxCell id="7Ek7RL77VowX6VJ70j0s-61" style="edgeStyle=orthogonalEdgeStyle;rounded=0;orthogonalLoop=1;jettySize=auto;html=1;" parent="1" source="7Ek7RL77VowX6VJ70j0s-59" edge="1">
          <mxGeometry relative="1" as="geometry">
            <mxPoint x="480" y="760" as="targetPoint" />
            <Array as="points">
              <mxPoint x="390" y="955" />
              <mxPoint x="390" y="760" />
            </Array>
          </mxGeometry>
        </mxCell>
        <mxCell id="7Ek7RL77VowX6VJ70j0s-59" value="&lt;font style=&quot;&quot;&gt;&lt;span style=&quot;font-size: 10px;&quot;&gt;&lt;b&gt;El cliente confirma la recepción&amp;nbsp;de la motocicleta y procede a usarla por el tiempo pactado en el contrato&lt;/b&gt;&lt;/span&gt;&lt;/font&gt;" style="rounded=1;whiteSpace=wrap;html=1;fillColor=#dae8fc;gradientColor=#7ea6e0;strokeColor=#6c8ebf;" parent="1" vertex="1">
          <mxGeometry x="227.5" y="920" width="126.25" height="80" as="geometry" />
        </mxCell>
        <mxCell id="7Ek7RL77VowX6VJ70j0s-81" value="" style="edgeStyle=none;rounded=0;orthogonalLoop=1;jettySize=auto;html=1;" parent="1" source="7Ek7RL77VowX6VJ70j0s-62" target="7Ek7RL77VowX6VJ70j0s-67" edge="1">
          <mxGeometry relative="1" as="geometry" />
        </mxCell>
        <mxCell id="7Ek7RL77VowX6VJ70j0s-62" value="&lt;b&gt;&lt;font style=&quot;font-size: 10px;&quot;&gt;Se acaba el contrato&lt;/font&gt;&lt;/b&gt;" style="rounded=1;whiteSpace=wrap;html=1;fillColor=#dae8fc;gradientColor=#7ea6e0;strokeColor=#6c8ebf;" parent="1" vertex="1">
          <mxGeometry x="481.25" y="740" width="126.25" height="40" as="geometry" />
        </mxCell>
        <mxCell id="7Ek7RL77VowX6VJ70j0s-84" style="edgeStyle=none;rounded=0;orthogonalLoop=1;jettySize=auto;html=1;entryX=0.5;entryY=0;entryDx=0;entryDy=0;" parent="1" source="7Ek7RL77VowX6VJ70j0s-67" target="7Ek7RL77VowX6VJ70j0s-68" edge="1">
          <mxGeometry relative="1" as="geometry" />
        </mxCell>
        <mxCell id="7Ek7RL77VowX6VJ70j0s-86" style="edgeStyle=none;rounded=0;orthogonalLoop=1;jettySize=auto;html=1;entryX=0.5;entryY=0;entryDx=0;entryDy=0;" parent="1" source="7Ek7RL77VowX6VJ70j0s-67" target="7Ek7RL77VowX6VJ70j0s-85" edge="1">
          <mxGeometry relative="1" as="geometry" />
        </mxCell>
        <mxCell id="7Ek7RL77VowX6VJ70j0s-67" value="&lt;b&gt;&lt;font style=&quot;font-size: 10px;&quot;&gt;Se realiza un peritaje de la motocicleta para verificar el estado de la misma&amp;nbsp;&lt;/font&gt;&lt;/b&gt;" style="rounded=1;whiteSpace=wrap;html=1;fillColor=#dae8fc;gradientColor=#7ea6e0;strokeColor=#6c8ebf;" parent="1" vertex="1">
          <mxGeometry x="478.75" y="810" width="126.25" height="70" as="geometry" />
        </mxCell>
        <mxCell id="7Ek7RL77VowX6VJ70j0s-94" style="edgeStyle=none;rounded=0;orthogonalLoop=1;jettySize=auto;html=1;entryX=0.5;entryY=0;entryDx=0;entryDy=0;" parent="1" source="7Ek7RL77VowX6VJ70j0s-68" target="7Ek7RL77VowX6VJ70j0s-71" edge="1">
          <mxGeometry relative="1" as="geometry" />
        </mxCell>
        <mxCell id="7Ek7RL77VowX6VJ70j0s-68" value="&lt;font face=&quot;Times New Roman&quot;&gt;&lt;b&gt;Motocicleta en buen estado&amp;nbsp;&lt;/b&gt;&lt;/font&gt;" style="rounded=1;whiteSpace=wrap;html=1;fillColor=#d5e8d4;gradientColor=#97d077;strokeColor=#82b366;" parent="1" vertex="1">
          <mxGeometry x="400" y="930" width="126.25" height="40" as="geometry" />
        </mxCell>
        <mxCell id="7Ek7RL77VowX6VJ70j0s-89" style="edgeStyle=none;rounded=0;orthogonalLoop=1;jettySize=auto;html=1;entryX=0.5;entryY=0;entryDx=0;entryDy=0;" parent="1" source="7Ek7RL77VowX6VJ70j0s-71" edge="1">
          <mxGeometry relative="1" as="geometry">
            <mxPoint x="543.7550000000001" y="1120" as="targetPoint" />
          </mxGeometry>
        </mxCell>
        <mxCell id="7Ek7RL77VowX6VJ70j0s-71" value="&lt;span style=&quot;font-size: 10px;&quot;&gt;&lt;b&gt;&lt;font face=&quot;Times New Roman&quot;&gt;Se devuelve el deposito&amp;nbsp;&lt;/font&gt;&lt;/b&gt;&lt;/span&gt;" style="rounded=1;whiteSpace=wrap;html=1;fillColor=#d5e8d4;gradientColor=#97d077;strokeColor=#82b366;" parent="1" vertex="1">
          <mxGeometry x="400" y="1010" width="126.25" height="40" as="geometry" />
        </mxCell>
        <mxCell id="7Ek7RL77VowX6VJ70j0s-96" style="edgeStyle=none;rounded=0;orthogonalLoop=1;jettySize=auto;html=1;" parent="1" source="7Ek7RL77VowX6VJ70j0s-85" target="7Ek7RL77VowX6VJ70j0s-90" edge="1">
          <mxGeometry relative="1" as="geometry" />
        </mxCell>
        <mxCell id="7Ek7RL77VowX6VJ70j0s-85" value="&lt;font face=&quot;Times New Roman&quot;&gt;&lt;b&gt;Motocicleta en mal estado&amp;nbsp;&lt;/b&gt;&lt;/font&gt;" style="rounded=1;whiteSpace=wrap;html=1;fillColor=#f8cecc;gradientColor=#ea6b66;strokeColor=#b85450;" parent="1" vertex="1">
          <mxGeometry x="570" y="930" width="126.25" height="40" as="geometry" />
        </mxCell>
        <mxCell id="7Ek7RL77VowX6VJ70j0s-87" style="edgeStyle=none;rounded=0;orthogonalLoop=1;jettySize=auto;html=1;exitX=0.5;exitY=1;exitDx=0;exitDy=0;" parent="1" source="7Ek7RL77VowX6VJ70j0s-68" target="7Ek7RL77VowX6VJ70j0s-68" edge="1">
          <mxGeometry relative="1" as="geometry" />
        </mxCell>
        <mxCell id="7Ek7RL77VowX6VJ70j0s-90" value="&lt;span style=&quot;font-size: 10px;&quot;&gt;&lt;b&gt;&lt;font face=&quot;Times New Roman&quot;&gt;Se cobra el valor de las reparaciones del deposito&amp;nbsp;&lt;/font&gt;&lt;/b&gt;&lt;/span&gt;" style="rounded=1;whiteSpace=wrap;html=1;fillColor=#f8cecc;gradientColor=#ea6b66;strokeColor=#b85450;" parent="1" vertex="1">
          <mxGeometry x="570" y="1010" width="126.25" height="50" as="geometry" />
        </mxCell>
        <mxCell id="7Ek7RL77VowX6VJ70j0s-98" style="edgeStyle=none;rounded=0;orthogonalLoop=1;jettySize=auto;html=1;entryX=0.598;entryY=-0.025;entryDx=0;entryDy=0;entryPerimeter=0;exitX=0.5;exitY=1;exitDx=0;exitDy=0;" parent="1" source="7Ek7RL77VowX6VJ70j0s-90" edge="1">
          <mxGeometry relative="1" as="geometry">
            <mxPoint x="619.6921910112359" y="1051" as="sourcePoint" />
            <mxPoint x="559.9975000000001" y="1120" as="targetPoint" />
          </mxGeometry>
        </mxCell>
        <mxCell id="7Ek7RL77VowX6VJ70j0s-100" value="" style="ellipse;whiteSpace=wrap;html=1;fillColor=#dae8fc;gradientColor=#7ea6e0;strokeColor=#6c8ebf;" parent="1" vertex="1">
          <mxGeometry x="487.5" y="1120" width="120" height="80" as="geometry" />
        </mxCell>
        <mxCell id="7Ek7RL77VowX6VJ70j0s-101" value="&lt;h2&gt;&lt;font face=&quot;Georgia&quot;&gt;&lt;i style=&quot;background-color: rgb(126, 166, 224);&quot;&gt;Fin del contrato&lt;/i&gt;&lt;/font&gt;&lt;/h2&gt;" style="text;html=1;strokeColor=none;fillColor=none;align=center;verticalAlign=middle;whiteSpace=wrap;rounded=0;" parent="1" vertex="1">
          <mxGeometry x="507.5" y="1130" width="80" height="60" as="geometry" />
        </mxCell>
      </root>
    </mxGraphModel>
  </diagram>
</mxfile>
